<mxfile host="Electron" agent="Mozilla/5.0 (Windows NT 10.0; Win64; x64) AppleWebKit/537.36 (KHTML, like Gecko) draw.io/26.0.4 Chrome/128.0.6613.186 Electron/32.2.5 Safari/537.36" version="26.0.4" pages="2">
  <diagram name="Page-1" id="yfE7iOvvwZD3XlfEfftK">
    <mxGraphModel dx="864" dy="516" grid="1" gridSize="10" guides="1" tooltips="1" connect="1" arrows="1" fold="1" page="1" pageScale="3" pageWidth="850" pageHeight="1100" math="0" shadow="0">
      <root>
        <mxCell id="0" />
        <mxCell id="1" parent="0" />
        <mxCell id="yEvwBxEegrwUVoP8rvpN-102" value="ins_id" style="rounded=0;whiteSpace=wrap;html=1;" parent="1" vertex="1">
          <mxGeometry x="790" y="80" width="90" height="60" as="geometry" />
        </mxCell>
        <mxCell id="yEvwBxEegrwUVoP8rvpN-104" value="fName" style="rounded=0;whiteSpace=wrap;html=1;" parent="1" vertex="1">
          <mxGeometry x="880" y="80" width="90" height="60" as="geometry" />
        </mxCell>
        <mxCell id="yEvwBxEegrwUVoP8rvpN-105" value="lName" style="rounded=0;whiteSpace=wrap;html=1;" parent="1" vertex="1">
          <mxGeometry x="970" y="80" width="70" height="60" as="geometry" />
        </mxCell>
        <mxCell id="yEvwBxEegrwUVoP8rvpN-106" value="Address" style="rounded=0;whiteSpace=wrap;html=1;" parent="1" vertex="1">
          <mxGeometry x="1030" y="80" width="90" height="60" as="geometry" />
        </mxCell>
        <mxCell id="yEvwBxEegrwUVoP8rvpN-107" value="salary" style="rounded=0;whiteSpace=wrap;html=1;" parent="1" vertex="1">
          <mxGeometry x="1120" y="80" width="80" height="60" as="geometry" />
        </mxCell>
        <mxCell id="yEvwBxEegrwUVoP8rvpN-108" value="dept_id" style="rounded=0;whiteSpace=wrap;html=1;" parent="1" vertex="1">
          <mxGeometry x="1200" y="80" width="70" height="60" as="geometry" />
        </mxCell>
        <mxCell id="yEvwBxEegrwUVoP8rvpN-109" value="&lt;b&gt;&lt;font style=&quot;font-size: 17px;&quot;&gt;Instructor&lt;/font&gt;&lt;/b&gt;" style="text;html=1;align=center;verticalAlign=middle;whiteSpace=wrap;rounded=0;" parent="1" vertex="1">
          <mxGeometry x="780" y="40" width="60" height="30" as="geometry" />
        </mxCell>
        <mxCell id="yEvwBxEegrwUVoP8rvpN-110" value="dept_id" style="rounded=0;whiteSpace=wrap;html=1;" parent="1" vertex="1">
          <mxGeometry x="790" y="210" width="90" height="60" as="geometry" />
        </mxCell>
        <mxCell id="yEvwBxEegrwUVoP8rvpN-111" value="dept_name" style="rounded=0;whiteSpace=wrap;html=1;" parent="1" vertex="1">
          <mxGeometry x="880" y="210" width="90" height="60" as="geometry" />
        </mxCell>
        <mxCell id="yEvwBxEegrwUVoP8rvpN-145" style="rounded=0;orthogonalLoop=1;jettySize=auto;html=1;exitX=0.5;exitY=0;exitDx=0;exitDy=0;entryX=0.75;entryY=1;entryDx=0;entryDy=0;" parent="1" source="yEvwBxEegrwUVoP8rvpN-112" target="yEvwBxEegrwUVoP8rvpN-102" edge="1">
          <mxGeometry relative="1" as="geometry" />
        </mxCell>
        <mxCell id="yEvwBxEegrwUVoP8rvpN-112" value="manager_id" style="rounded=0;whiteSpace=wrap;html=1;" parent="1" vertex="1">
          <mxGeometry x="970" y="210" width="90" height="60" as="geometry" />
        </mxCell>
        <mxCell id="yEvwBxEegrwUVoP8rvpN-113" value="promotion_date" style="rounded=0;whiteSpace=wrap;html=1;" parent="1" vertex="1">
          <mxGeometry x="1060" y="210" width="120" height="60" as="geometry" />
        </mxCell>
        <mxCell id="yEvwBxEegrwUVoP8rvpN-116" value="&lt;span style=&quot;font-size: 17px;&quot;&gt;&lt;b&gt;Department&lt;/b&gt;&lt;/span&gt;" style="text;html=1;align=center;verticalAlign=middle;whiteSpace=wrap;rounded=0;" parent="1" vertex="1">
          <mxGeometry x="780" y="170" width="60" height="30" as="geometry" />
        </mxCell>
        <mxCell id="yEvwBxEegrwUVoP8rvpN-120" value="&lt;br&gt;&lt;span style=&quot;color: rgb(0, 0, 0); font-family: Helvetica; font-size: 12px; font-style: normal; font-variant-ligatures: normal; font-variant-caps: normal; font-weight: 400; letter-spacing: normal; orphans: 2; text-align: center; text-indent: 0px; text-transform: none; widows: 2; word-spacing: 0px; -webkit-text-stroke-width: 0px; white-space: normal; background-color: rgb(251, 251, 251); text-decoration-thickness: initial; text-decoration-style: initial; text-decoration-color: initial; float: none; display: inline !important;&quot;&gt;hire_date&lt;/span&gt;&lt;div&gt;&lt;br/&gt;&lt;/div&gt;" style="rounded=0;whiteSpace=wrap;html=1;" parent="1" vertex="1">
          <mxGeometry x="1270" y="80" width="120" height="60" as="geometry" />
        </mxCell>
        <mxCell id="yEvwBxEegrwUVoP8rvpN-122" value="std_id" style="rounded=0;whiteSpace=wrap;html=1;" parent="1" vertex="1">
          <mxGeometry x="790" y="320" width="90" height="60" as="geometry" />
        </mxCell>
        <mxCell id="yEvwBxEegrwUVoP8rvpN-123" value="std_fName" style="rounded=0;whiteSpace=wrap;html=1;" parent="1" vertex="1">
          <mxGeometry x="880" y="320" width="90" height="60" as="geometry" />
        </mxCell>
        <mxCell id="yEvwBxEegrwUVoP8rvpN-124" value="std_lName" style="rounded=0;whiteSpace=wrap;html=1;" parent="1" vertex="1">
          <mxGeometry x="970" y="320" width="90" height="60" as="geometry" />
        </mxCell>
        <mxCell id="yEvwBxEegrwUVoP8rvpN-125" value="birthDate" style="rounded=0;whiteSpace=wrap;html=1;" parent="1" vertex="1">
          <mxGeometry x="1060" y="320" width="80" height="60" as="geometry" />
        </mxCell>
        <mxCell id="yEvwBxEegrwUVoP8rvpN-126" value="Address" style="rounded=0;whiteSpace=wrap;html=1;" parent="1" vertex="1">
          <mxGeometry x="1140" y="320" width="70" height="60" as="geometry" />
        </mxCell>
        <mxCell id="yEvwBxEegrwUVoP8rvpN-127" value="&lt;div style=&quot;text-align: center;&quot;&gt;&lt;span style=&quot;background-color: transparent; color: light-dark(rgb(0, 0, 0), rgb(255, 255, 255)); font-size: 17px;&quot;&gt;&lt;b&gt;Student&lt;/b&gt;&lt;/span&gt;&lt;/div&gt;" style="text;whiteSpace=wrap;html=1;" parent="1" vertex="1">
          <mxGeometry x="760" y="280" width="70" height="30" as="geometry" />
        </mxCell>
        <mxCell id="yEvwBxEegrwUVoP8rvpN-128" value="phoneNumber" style="rounded=0;whiteSpace=wrap;html=1;" parent="1" vertex="1">
          <mxGeometry x="1410" y="320" width="90" height="60" as="geometry" />
        </mxCell>
        <mxCell id="yEvwBxEegrwUVoP8rvpN-129" value="Std_id" style="rounded=0;whiteSpace=wrap;html=1;" parent="1" vertex="1">
          <mxGeometry x="1330" y="320" width="80" height="60" as="geometry" />
        </mxCell>
        <mxCell id="yEvwBxEegrwUVoP8rvpN-142" style="edgeStyle=orthogonalEdgeStyle;rounded=0;orthogonalLoop=1;jettySize=auto;html=1;exitX=0.25;exitY=0;exitDx=0;exitDy=0;entryX=0.75;entryY=0;entryDx=0;entryDy=0;" parent="1" source="yEvwBxEegrwUVoP8rvpN-129" target="yEvwBxEegrwUVoP8rvpN-122" edge="1">
          <mxGeometry relative="1" as="geometry">
            <mxPoint x="930" y="452" as="targetPoint" />
            <Array as="points">
              <mxPoint x="1350" y="300" />
              <mxPoint x="858" y="300" />
            </Array>
          </mxGeometry>
        </mxCell>
        <mxCell id="yEvwBxEegrwUVoP8rvpN-130" value="&lt;b style=&quot;forced-color-adjust: none; color: rgb(0, 0, 0); font-family: Helvetica; font-size: 17px; font-style: normal; font-variant-ligatures: normal; font-variant-caps: normal; letter-spacing: normal; orphans: 2; text-align: center; text-indent: 0px; text-transform: none; widows: 2; word-spacing: 0px; -webkit-text-stroke-width: 0px; white-space: normal; background-color: rgb(251, 251, 251); text-decoration-thickness: initial; text-decoration-style: initial; text-decoration-color: initial;&quot;&gt;StudentPhones&lt;/b&gt;" style="text;whiteSpace=wrap;html=1;" parent="1" vertex="1">
          <mxGeometry x="1350" y="275" width="140" height="35" as="geometry" />
        </mxCell>
        <mxCell id="yEvwBxEegrwUVoP8rvpN-133" value="" style="line;strokeWidth=2;html=1;" parent="1" vertex="1">
          <mxGeometry x="815" y="120" width="40" height="10" as="geometry" />
        </mxCell>
        <mxCell id="yEvwBxEegrwUVoP8rvpN-134" value="" style="line;strokeWidth=2;html=1;" parent="1" vertex="1">
          <mxGeometry x="815" y="250" width="40" height="10" as="geometry" />
        </mxCell>
        <mxCell id="yEvwBxEegrwUVoP8rvpN-135" value="" style="line;strokeWidth=2;html=1;" parent="1" vertex="1">
          <mxGeometry x="815" y="360" width="40" height="10" as="geometry" />
        </mxCell>
        <mxCell id="yEvwBxEegrwUVoP8rvpN-137" value="" style="endArrow=none;dashed=1;html=1;rounded=0;" parent="1" edge="1">
          <mxGeometry width="50" height="50" relative="1" as="geometry">
            <mxPoint x="990" y="254.5" as="sourcePoint" />
            <mxPoint x="1040" y="254.5" as="targetPoint" />
          </mxGeometry>
        </mxCell>
        <mxCell id="yEvwBxEegrwUVoP8rvpN-138" value="" style="endArrow=none;dashed=1;html=1;rounded=0;" parent="1" edge="1">
          <mxGeometry width="50" height="50" relative="1" as="geometry">
            <mxPoint x="1210" y="124.5" as="sourcePoint" />
            <mxPoint x="1260" y="124.5" as="targetPoint" />
          </mxGeometry>
        </mxCell>
        <mxCell id="yEvwBxEegrwUVoP8rvpN-141" value="" style="endArrow=none;dashed=1;html=1;rounded=0;" parent="1" edge="1">
          <mxGeometry width="50" height="50" relative="1" as="geometry">
            <mxPoint x="1345" y="364.5" as="sourcePoint" />
            <mxPoint x="1395" y="364.5" as="targetPoint" />
          </mxGeometry>
        </mxCell>
        <mxCell id="yEvwBxEegrwUVoP8rvpN-144" style="rounded=0;orthogonalLoop=1;jettySize=auto;html=1;exitX=0.5;exitY=1;exitDx=0;exitDy=0;entryX=0.844;entryY=0.017;entryDx=0;entryDy=0;entryPerimeter=0;" parent="1" source="yEvwBxEegrwUVoP8rvpN-108" target="yEvwBxEegrwUVoP8rvpN-110" edge="1">
          <mxGeometry relative="1" as="geometry" />
        </mxCell>
        <mxCell id="yEvwBxEegrwUVoP8rvpN-146" value="&lt;div style=&quot;text-align: center;&quot;&gt;&lt;span style=&quot;font-size: 17px;&quot;&gt;&lt;b&gt;Course&lt;/b&gt;&lt;/span&gt;&lt;/div&gt;" style="text;whiteSpace=wrap;html=1;" parent="1" vertex="1">
          <mxGeometry x="760" y="410" width="70" height="30" as="geometry" />
        </mxCell>
        <mxCell id="yEvwBxEegrwUVoP8rvpN-148" value="Course_id" style="rounded=0;whiteSpace=wrap;html=1;" parent="1" vertex="1">
          <mxGeometry x="780" y="450" width="80" height="60" as="geometry" />
        </mxCell>
        <mxCell id="yEvwBxEegrwUVoP8rvpN-149" value="CName" style="rounded=0;whiteSpace=wrap;html=1;" parent="1" vertex="1">
          <mxGeometry x="860" y="450" width="80" height="60" as="geometry" />
        </mxCell>
        <mxCell id="yEvwBxEegrwUVoP8rvpN-150" value="description" style="rounded=0;whiteSpace=wrap;html=1;" parent="1" vertex="1">
          <mxGeometry x="940" y="450" width="80" height="60" as="geometry" />
        </mxCell>
        <mxCell id="yEvwBxEegrwUVoP8rvpN-151" value="Duration" style="rounded=0;whiteSpace=wrap;html=1;" parent="1" vertex="1">
          <mxGeometry x="1020" y="450" width="80" height="60" as="geometry" />
        </mxCell>
        <mxCell id="yEvwBxEegrwUVoP8rvpN-152" value="Course_id" style="rounded=0;whiteSpace=wrap;html=1;" parent="1" vertex="1">
          <mxGeometry x="940" y="570" width="80" height="40" as="geometry" />
        </mxCell>
        <mxCell id="yEvwBxEegrwUVoP8rvpN-153" value="&lt;div style=&quot;text-align: center;&quot;&gt;&lt;b style=&quot;font-size: 17px;&quot;&gt;Std_courses&lt;/b&gt;&lt;br&gt;&lt;/div&gt;" style="text;whiteSpace=wrap;html=1;" parent="1" vertex="1">
          <mxGeometry x="1360" y="420" width="110" height="10" as="geometry" />
        </mxCell>
        <mxCell id="yEvwBxEegrwUVoP8rvpN-174" style="edgeStyle=orthogonalEdgeStyle;rounded=0;orthogonalLoop=1;jettySize=auto;html=1;exitX=0.25;exitY=0;exitDx=0;exitDy=0;entryX=0.75;entryY=0;entryDx=0;entryDy=0;" parent="1" source="yEvwBxEegrwUVoP8rvpN-154" target="yEvwBxEegrwUVoP8rvpN-148" edge="1">
          <mxGeometry relative="1" as="geometry">
            <Array as="points">
              <mxPoint x="1360" y="430" />
              <mxPoint x="840" y="430" />
            </Array>
          </mxGeometry>
        </mxCell>
        <mxCell id="yEvwBxEegrwUVoP8rvpN-154" value="Course_id" style="rounded=0;whiteSpace=wrap;html=1;" parent="1" vertex="1">
          <mxGeometry x="1340" y="460" width="80" height="40" as="geometry" />
        </mxCell>
        <mxCell id="yEvwBxEegrwUVoP8rvpN-176" style="edgeStyle=orthogonalEdgeStyle;rounded=0;orthogonalLoop=1;jettySize=auto;html=1;exitX=0.75;exitY=0;exitDx=0;exitDy=0;entryX=0.75;entryY=1;entryDx=0;entryDy=0;" parent="1" source="yEvwBxEegrwUVoP8rvpN-155" target="yEvwBxEegrwUVoP8rvpN-122" edge="1">
          <mxGeometry relative="1" as="geometry">
            <Array as="points">
              <mxPoint x="1480" y="400" />
              <mxPoint x="858" y="400" />
            </Array>
          </mxGeometry>
        </mxCell>
        <mxCell id="yEvwBxEegrwUVoP8rvpN-155" value="Std_id" style="rounded=0;whiteSpace=wrap;html=1;" parent="1" vertex="1">
          <mxGeometry x="1420" y="460" width="80" height="40" as="geometry" />
        </mxCell>
        <mxCell id="yEvwBxEegrwUVoP8rvpN-156" value="std_totalGrades" style="rounded=0;whiteSpace=wrap;html=1;" parent="1" vertex="1">
          <mxGeometry x="1500" y="460" width="100" height="40" as="geometry" />
        </mxCell>
        <mxCell id="yEvwBxEegrwUVoP8rvpN-157" value="&lt;div style=&quot;text-align: center;&quot;&gt;&lt;span style=&quot;font-size: 17px;&quot;&gt;&lt;b&gt;Topic&lt;/b&gt;&lt;/span&gt;&lt;/div&gt;" style="text;whiteSpace=wrap;html=1;" parent="1" vertex="1">
          <mxGeometry x="770" y="540" width="70" height="30" as="geometry" />
        </mxCell>
        <mxCell id="yEvwBxEegrwUVoP8rvpN-158" value="topic_id" style="rounded=0;whiteSpace=wrap;html=1;fontSize=15;" parent="1" vertex="1">
          <mxGeometry x="780" y="570" width="80" height="40" as="geometry" />
        </mxCell>
        <mxCell id="yEvwBxEegrwUVoP8rvpN-159" value="topic" style="rounded=0;whiteSpace=wrap;html=1;fontSize=15;" parent="1" vertex="1">
          <mxGeometry x="860" y="570" width="80" height="40" as="geometry" />
        </mxCell>
        <mxCell id="yEvwBxEegrwUVoP8rvpN-161" value="Course_id" style="rounded=0;whiteSpace=wrap;html=1;" parent="1" vertex="1">
          <mxGeometry x="1330" y="550" width="90" height="40" as="geometry" />
        </mxCell>
        <mxCell id="yEvwBxEegrwUVoP8rvpN-177" style="edgeStyle=orthogonalEdgeStyle;rounded=0;orthogonalLoop=1;jettySize=auto;html=1;exitX=0.75;exitY=0;exitDx=0;exitDy=0;entryX=0.75;entryY=0;entryDx=0;entryDy=0;" parent="1" source="yEvwBxEegrwUVoP8rvpN-162" target="yEvwBxEegrwUVoP8rvpN-102" edge="1">
          <mxGeometry relative="1" as="geometry">
            <mxPoint x="870" y="50" as="targetPoint" />
            <Array as="points">
              <mxPoint x="1470" y="570" />
              <mxPoint x="1660" y="570" />
              <mxPoint x="1660" y="40" />
              <mxPoint x="858" y="40" />
            </Array>
          </mxGeometry>
        </mxCell>
        <mxCell id="yEvwBxEegrwUVoP8rvpN-162" value="instructor_id" style="rounded=0;whiteSpace=wrap;html=1;" parent="1" vertex="1">
          <mxGeometry x="1410" y="550" width="80" height="40" as="geometry" />
        </mxCell>
        <mxCell id="yEvwBxEegrwUVoP8rvpN-165" value="&lt;b style=&quot;forced-color-adjust: none; color: rgb(0, 0, 0); font-family: Helvetica; font-style: normal; font-variant-ligatures: normal; font-variant-caps: normal; letter-spacing: normal; orphans: 2; text-align: center; text-indent: 0px; text-transform: none; widows: 2; word-spacing: 0px; -webkit-text-stroke-width: 0px; white-space: normal; background-color: rgb(251, 251, 251); text-decoration-thickness: initial; text-decoration-style: initial; text-decoration-color: initial; font-size: 17px;&quot;&gt;Ins_courses&lt;/b&gt;" style="text;whiteSpace=wrap;html=1;" parent="1" vertex="1">
          <mxGeometry x="1325" y="510" width="115" height="30" as="geometry" />
        </mxCell>
        <mxCell id="yEvwBxEegrwUVoP8rvpN-167" value="" style="line;strokeWidth=2;html=1;" parent="1" vertex="1">
          <mxGeometry x="800" y="490" width="40" height="10" as="geometry" />
        </mxCell>
        <mxCell id="yEvwBxEegrwUVoP8rvpN-168" value="" style="line;strokeWidth=2;html=1;fontSize=15;" parent="1" vertex="1">
          <mxGeometry x="800" y="600" width="40" height="10" as="geometry" />
        </mxCell>
        <mxCell id="yEvwBxEegrwUVoP8rvpN-169" value="" style="line;strokeWidth=2;html=1;" parent="1" vertex="1">
          <mxGeometry x="1360" y="490" width="130" height="10" as="geometry" />
        </mxCell>
        <mxCell id="yEvwBxEegrwUVoP8rvpN-170" value="" style="line;strokeWidth=2;html=1;" parent="1" vertex="1">
          <mxGeometry x="1350" y="580" width="110" height="10" as="geometry" />
        </mxCell>
        <mxCell id="yEvwBxEegrwUVoP8rvpN-171" value="" style="endArrow=none;dashed=1;html=1;rounded=0;" parent="1" edge="1">
          <mxGeometry width="50" height="50" relative="1" as="geometry">
            <mxPoint x="960" y="600" as="sourcePoint" />
            <mxPoint x="1010" y="600" as="targetPoint" />
          </mxGeometry>
        </mxCell>
        <mxCell id="yEvwBxEegrwUVoP8rvpN-172" value="&lt;div style=&quot;text-align: center;&quot;&gt;&lt;span style=&quot;background-color: transparent; color: light-dark(rgb(0, 0, 0), rgb(255, 255, 255));&quot;&gt;&lt;b&gt;Exam&lt;/b&gt;&lt;/span&gt;&lt;/div&gt;" style="text;whiteSpace=wrap;html=1;fontSize=15;" parent="1" vertex="1">
          <mxGeometry x="787.5" y="640" width="65" height="30" as="geometry" />
        </mxCell>
        <mxCell id="yEvwBxEegrwUVoP8rvpN-175" style="rounded=0;orthogonalLoop=1;jettySize=auto;html=1;exitX=0;exitY=0.5;exitDx=0;exitDy=0;" parent="1" source="yEvwBxEegrwUVoP8rvpN-161" edge="1">
          <mxGeometry relative="1" as="geometry">
            <mxPoint x="820" y="513" as="targetPoint" />
          </mxGeometry>
        </mxCell>
        <mxCell id="yEvwBxEegrwUVoP8rvpN-185" style="edgeStyle=orthogonalEdgeStyle;rounded=0;orthogonalLoop=1;jettySize=auto;html=1;entryX=0;entryY=0.5;entryDx=0;entryDy=0;" parent="1" source="yEvwBxEegrwUVoP8rvpN-178" target="yEvwBxEegrwUVoP8rvpN-148" edge="1">
          <mxGeometry relative="1" as="geometry">
            <Array as="points">
              <mxPoint x="760" y="700" />
              <mxPoint x="760" y="480" />
            </Array>
          </mxGeometry>
        </mxCell>
        <mxCell id="yEvwBxEegrwUVoP8rvpN-178" value="Ex_id" style="rounded=0;whiteSpace=wrap;html=1;fontSize=15;" parent="1" vertex="1">
          <mxGeometry x="775" y="680" width="85" height="40" as="geometry" />
        </mxCell>
        <mxCell id="yEvwBxEegrwUVoP8rvpN-179" value="Course_id" style="rounded=0;whiteSpace=wrap;html=1;fontSize=15;" parent="1" vertex="1">
          <mxGeometry x="860" y="680" width="85" height="40" as="geometry" />
        </mxCell>
        <mxCell id="yEvwBxEegrwUVoP8rvpN-184" style="edgeStyle=orthogonalEdgeStyle;rounded=0;orthogonalLoop=1;jettySize=auto;html=1;exitX=0.5;exitY=1;exitDx=0;exitDy=0;entryX=0;entryY=0.5;entryDx=0;entryDy=0;" parent="1" source="yEvwBxEegrwUVoP8rvpN-180" edge="1">
          <mxGeometry relative="1" as="geometry">
            <mxPoint x="988.75" y="740" as="sourcePoint" />
            <mxPoint x="791.25" y="130" as="targetPoint" />
            <Array as="points">
              <mxPoint x="989" y="720" />
              <mxPoint x="989" y="640" />
              <mxPoint x="740" y="640" />
              <mxPoint x="740" y="130" />
            </Array>
          </mxGeometry>
        </mxCell>
        <mxCell id="yEvwBxEegrwUVoP8rvpN-180" value="instructor_id" style="rounded=0;whiteSpace=wrap;html=1;fontSize=15;" parent="1" vertex="1">
          <mxGeometry x="945" y="680" width="85" height="40" as="geometry" />
        </mxCell>
        <mxCell id="yEvwBxEegrwUVoP8rvpN-181" value="Duration" style="rounded=0;whiteSpace=wrap;html=1;fontSize=15;" parent="1" vertex="1">
          <mxGeometry x="1030" y="680" width="85" height="40" as="geometry" />
        </mxCell>
        <mxCell id="yEvwBxEegrwUVoP8rvpN-182" value="TotalMark" style="rounded=0;whiteSpace=wrap;html=1;fontSize=15;" parent="1" vertex="1">
          <mxGeometry x="1115" y="680" width="85" height="40" as="geometry" />
        </mxCell>
        <mxCell id="yEvwBxEegrwUVoP8rvpN-186" value="&lt;div style=&quot;text-align: center;&quot;&gt;&lt;span style=&quot;font-size: 17px;&quot;&gt;&lt;b&gt;Question&lt;/b&gt;&lt;/span&gt;&lt;/div&gt;" style="text;whiteSpace=wrap;html=1;" parent="1" vertex="1">
          <mxGeometry x="767.5" y="750" width="65" height="30" as="geometry" />
        </mxCell>
        <mxCell id="yEvwBxEegrwUVoP8rvpN-187" value="Q_id" style="rounded=0;whiteSpace=wrap;html=1;fontSize=15;" parent="1" vertex="1">
          <mxGeometry x="762.5" y="790" width="85" height="40" as="geometry" />
        </mxCell>
        <mxCell id="yEvwBxEegrwUVoP8rvpN-188" value="Q_body" style="rounded=0;whiteSpace=wrap;html=1;fontSize=15;" parent="1" vertex="1">
          <mxGeometry x="840" y="790" width="85" height="40" as="geometry" />
        </mxCell>
        <mxCell id="yEvwBxEegrwUVoP8rvpN-189" value="type" style="rounded=0;whiteSpace=wrap;html=1;fontSize=15;" parent="1" vertex="1">
          <mxGeometry x="925" y="790" width="85" height="40" as="geometry" />
        </mxCell>
        <mxCell id="yEvwBxEegrwUVoP8rvpN-190" value="Q_mark" style="rounded=0;whiteSpace=wrap;html=1;fontSize=15;" parent="1" vertex="1">
          <mxGeometry x="1010" y="790" width="85" height="40" as="geometry" />
        </mxCell>
        <mxCell id="yEvwBxEegrwUVoP8rvpN-191" value="course_id" style="rounded=0;whiteSpace=wrap;html=1;fontSize=15;" parent="1" vertex="1">
          <mxGeometry x="1095" y="790" width="85" height="40" as="geometry" />
        </mxCell>
        <mxCell id="yEvwBxEegrwUVoP8rvpN-192" value="" style="line;strokeWidth=2;html=1;" parent="1" vertex="1">
          <mxGeometry x="787.5" y="820" width="40" height="10" as="geometry" />
        </mxCell>
        <mxCell id="yEvwBxEegrwUVoP8rvpN-193" value="" style="line;strokeWidth=2;html=1;" parent="1" vertex="1">
          <mxGeometry x="800" y="710" width="40" height="10" as="geometry" />
        </mxCell>
        <mxCell id="yEvwBxEegrwUVoP8rvpN-194" value="" style="endArrow=none;dashed=1;html=1;rounded=0;" parent="1" edge="1">
          <mxGeometry width="50" height="50" relative="1" as="geometry">
            <mxPoint x="1115" y="824.47" as="sourcePoint" />
            <mxPoint x="1165" y="824.47" as="targetPoint" />
          </mxGeometry>
        </mxCell>
        <mxCell id="yEvwBxEegrwUVoP8rvpN-195" value="&lt;div style=&quot;text-align: center;&quot;&gt;&lt;span style=&quot;font-size: 17px;&quot;&gt;&lt;b&gt;ExamQuestions&lt;/b&gt;&lt;/span&gt;&lt;/div&gt;" style="text;whiteSpace=wrap;html=1;" parent="1" vertex="1">
          <mxGeometry x="1308.75" y="760" width="65" height="30" as="geometry" />
        </mxCell>
        <mxCell id="yEvwBxEegrwUVoP8rvpN-215" style="edgeStyle=elbowEdgeStyle;rounded=0;orthogonalLoop=1;jettySize=auto;html=1;exitX=0.25;exitY=1;exitDx=0;exitDy=0;elbow=vertical;" parent="1" source="yEvwBxEegrwUVoP8rvpN-196" edge="1">
          <mxGeometry relative="1" as="geometry">
            <mxPoint x="798" y="830" as="targetPoint" />
            <Array as="points">
              <mxPoint x="1070" y="850" />
            </Array>
          </mxGeometry>
        </mxCell>
        <mxCell id="yEvwBxEegrwUVoP8rvpN-196" value="Q_id" style="rounded=0;whiteSpace=wrap;html=1;fontSize=15;" parent="1" vertex="1">
          <mxGeometry x="1327.5" y="800" width="85" height="40" as="geometry" />
        </mxCell>
        <mxCell id="yEvwBxEegrwUVoP8rvpN-197" value="Exam_id" style="rounded=0;whiteSpace=wrap;html=1;fontSize=15;" parent="1" vertex="1">
          <mxGeometry x="1405" y="800" width="85" height="40" as="geometry" />
        </mxCell>
        <mxCell id="yEvwBxEegrwUVoP8rvpN-201" value="" style="line;strokeWidth=2;html=1;" parent="1" vertex="1">
          <mxGeometry x="1352.5" y="830" width="125" height="10" as="geometry" />
        </mxCell>
        <mxCell id="yEvwBxEegrwUVoP8rvpN-204" value="&lt;div style=&quot;text-align: center;&quot;&gt;&lt;span style=&quot;font-size: 17px;&quot;&gt;&lt;b&gt;QuestionAnswers&lt;/b&gt;&lt;/span&gt;&lt;/div&gt;" style="text;whiteSpace=wrap;html=1;" parent="1" vertex="1">
          <mxGeometry x="1308.75" y="640" width="165" height="30" as="geometry" />
        </mxCell>
        <mxCell id="yEvwBxEegrwUVoP8rvpN-213" style="rounded=0;orthogonalLoop=1;jettySize=auto;html=1;exitX=0;exitY=0.75;exitDx=0;exitDy=0;entryX=0.583;entryY=-0.062;entryDx=0;entryDy=0;entryPerimeter=0;" parent="1" source="yEvwBxEegrwUVoP8rvpN-205" target="yEvwBxEegrwUVoP8rvpN-187" edge="1">
          <mxGeometry relative="1" as="geometry" />
        </mxCell>
        <mxCell id="yEvwBxEegrwUVoP8rvpN-205" value="Q_id" style="rounded=0;whiteSpace=wrap;html=1;fontSize=15;" parent="1" vertex="1">
          <mxGeometry x="1303.75" y="680" width="85" height="40" as="geometry" />
        </mxCell>
        <mxCell id="yEvwBxEegrwUVoP8rvpN-206" value="ans_id" style="rounded=0;whiteSpace=wrap;html=1;fontSize=15;" parent="1" vertex="1">
          <mxGeometry x="1381.25" y="680" width="85" height="40" as="geometry" />
        </mxCell>
        <mxCell id="yEvwBxEegrwUVoP8rvpN-207" value="Answer" style="rounded=0;whiteSpace=wrap;html=1;fontSize=15;" parent="1" vertex="1">
          <mxGeometry x="1466.25" y="680" width="80" height="40" as="geometry" />
        </mxCell>
        <mxCell id="yEvwBxEegrwUVoP8rvpN-210" value="" style="line;strokeWidth=2;html=1;" parent="1" vertex="1">
          <mxGeometry x="1328.75" y="710" width="115" height="10" as="geometry" />
        </mxCell>
        <mxCell id="yEvwBxEegrwUVoP8rvpN-214" style="rounded=0;orthogonalLoop=1;jettySize=auto;html=1;exitX=0.25;exitY=0;exitDx=0;exitDy=0;" parent="1" source="yEvwBxEegrwUVoP8rvpN-197" edge="1">
          <mxGeometry relative="1" as="geometry">
            <mxPoint x="840" y="720" as="targetPoint" />
          </mxGeometry>
        </mxCell>
        <mxCell id="yEvwBxEegrwUVoP8rvpN-216" value="&lt;div style=&quot;text-align: center;&quot;&gt;&lt;span style=&quot;font-size: 17px;&quot;&gt;&lt;b&gt;Student_Answer&lt;/b&gt;&lt;/span&gt;&lt;/div&gt;" style="text;whiteSpace=wrap;html=1;" parent="1" vertex="1">
          <mxGeometry x="763.75" y="900" width="65" height="30" as="geometry" />
        </mxCell>
        <mxCell id="yEvwBxEegrwUVoP8rvpN-224" style="edgeStyle=orthogonalEdgeStyle;rounded=0;orthogonalLoop=1;jettySize=auto;html=1;exitX=0;exitY=0.5;exitDx=0;exitDy=0;entryX=0;entryY=0.75;entryDx=0;entryDy=0;" parent="1" source="yEvwBxEegrwUVoP8rvpN-217" target="yEvwBxEegrwUVoP8rvpN-178" edge="1">
          <mxGeometry relative="1" as="geometry" />
        </mxCell>
        <mxCell id="yEvwBxEegrwUVoP8rvpN-217" value="Exam_id" style="rounded=0;whiteSpace=wrap;html=1;fontSize=15;" parent="1" vertex="1">
          <mxGeometry x="758.75" y="940" width="85" height="40" as="geometry" />
        </mxCell>
        <mxCell id="yEvwBxEegrwUVoP8rvpN-218" value="Std_Answer" style="rounded=0;whiteSpace=wrap;html=1;fontSize=15;" parent="1" vertex="1">
          <mxGeometry x="843.75" y="940" width="85" height="40" as="geometry" />
        </mxCell>
        <mxCell id="yEvwBxEegrwUVoP8rvpN-219" value="total-score" style="rounded=0;whiteSpace=wrap;html=1;fontSize=15;" parent="1" vertex="1">
          <mxGeometry x="928.75" y="940" width="85" height="40" as="geometry" />
        </mxCell>
        <mxCell id="yEvwBxEegrwUVoP8rvpN-222" value="" style="line;strokeWidth=2;html=1;" parent="1" vertex="1">
          <mxGeometry x="770" y="970" width="50" height="10" as="geometry" />
        </mxCell>
        <mxCell id="Rz5v77mpBUa7WxqPpwSF-2" style="rounded=0;orthogonalLoop=1;jettySize=auto;html=1;exitX=0.5;exitY=0;exitDx=0;exitDy=0;entryX=0.75;entryY=1;entryDx=0;entryDy=0;" parent="1" source="Rz5v77mpBUa7WxqPpwSF-1" target="yEvwBxEegrwUVoP8rvpN-110" edge="1">
          <mxGeometry relative="1" as="geometry" />
        </mxCell>
        <mxCell id="Rz5v77mpBUa7WxqPpwSF-1" value="DeptId" style="rounded=0;whiteSpace=wrap;html=1;" parent="1" vertex="1">
          <mxGeometry x="1210" y="320" width="70" height="60" as="geometry" />
        </mxCell>
        <mxCell id="ReaMjuG1y4qQw1kiznG--1" style="rounded=0;orthogonalLoop=1;jettySize=auto;html=1;exitX=0.25;exitY=0;exitDx=0;exitDy=0;entryX=0.85;entryY=1;entryDx=0;entryDy=0;entryPerimeter=0;" edge="1" parent="1" source="yEvwBxEegrwUVoP8rvpN-152" target="yEvwBxEegrwUVoP8rvpN-148">
          <mxGeometry relative="1" as="geometry" />
        </mxCell>
      </root>
    </mxGraphModel>
  </diagram>
  <diagram id="vA3UQPG6AKniCLf_Tntx" name="Page-2">
    <mxGraphModel grid="1" page="1" gridSize="10" guides="1" tooltips="1" connect="1" arrows="1" fold="1" pageScale="1" pageWidth="850" pageHeight="1100" math="0" shadow="0">
      <root>
        <mxCell id="0" />
        <mxCell id="1" parent="0" />
      </root>
    </mxGraphModel>
  </diagram>
</mxfile>
